<?xml version="1.0" standalone="no"?>
<!DOCTYPE svg PUBLIC "-//W3C//DTD SVG 20010904//EN"
 "http://www.w3.org/TR/2001/REC-SVG-20010904/DTD/svg10.dtd">
<svg version="1.0" xmlns="http://www.w3.org/2000/svg"
 width="20" height="20" viewBox="0 0 512.000000 512.000000"
 preserveAspectRatio="xMidYMid meet">

<g transform="translate(0.000000,512.000000) scale(0.100000,-0.100000)"
fill="#000000" stroke="none">
<path d="M1683 4585 c-80 -22 -120 -41 -190 -91 -129 -92 -237 -263 -290 -459
-24 -91 -26 -116 -26 -280 0 -162 2 -190 25 -276 67 -248 199 -427 381 -514
175 -85 360 -65 522 57 200 152 315 418 315 733 0 232 -57 424 -176 592 -139
195 -364 291 -561 238z"/>
<path d="M3213 4586 c-222 -54 -408 -269 -483 -556 -28 -108 -38 -335 -20
-448 68 -426 366 -715 682 -663 246 40 442 249 526 560 23 86 25 114 25 276 0
163 -2 189 -26 279 -106 394 -401 625 -704 552z"/>
<path d="M560 3309 c-132 -25 -273 -138 -337 -269 -54 -111 -68 -179 -67 -330
1 -116 5 -147 28 -223 125 -416 483 -634 796 -485 127 61 232 200 277 368 26
95 23 288 -6 395 -98 365 -397 601 -691 544z"/>
<path d="M4364 3305 c-223 -48 -421 -264 -495 -540 -29 -107 -32 -300 -6 -395
74 -278 294 -445 538 -410 198 28 370 165 475 375 66 135 87 224 88 380 0 96
-4 147 -17 194 -46 164 -145 295 -270 356 -112 54 -197 65 -313 40z"/>
<path d="M2352 2775 c-497 -90 -923 -508 -1116 -1097 -67 -201 -90 -336 -83
-483 9 -200 67 -336 207 -476 68 -68 102 -94 170 -127 89 -44 193 -72 272 -72
60 0 177 23 253 50 197 70 504 98 721 66 112 -16 171 -30 339 -80 179 -53 316
-43 475 36 68 33 103 59 171 128 73 72 94 101 132 180 63 132 81 221 74 374
-11 246 -122 578 -276 826 -227 365 -565 612 -925 675 -107 18 -312 18 -414 0z"/>
</g>
</svg>
